<svg width="577" height="703" viewBox="0 0 577 703" fill="none" xmlns="http://www.w3.org/2000/svg">
<path d="M576.515 351.985C576.515 543.677 416.97 699.459 218.94 702.515C216.919 702.591 214.899 702.616 212.854 702.616H0.732422C0.732422 663.904 16.995 628.828 43.3334 603.449C69.6718 578.045 106.036 562.363 146.212 562.363H212.879C333.384 562.363 431.061 468.172 431.061 351.985C431.061 347.717 430.935 343.475 430.657 339.257C430.606 338.096 430.53 336.934 430.43 335.798C430.278 333.929 430.101 332.035 429.924 330.167C429.748 328.5 429.546 326.833 429.318 325.192C428.889 321.808 428.359 318.449 427.727 315.141C427.702 315.015 427.677 314.889 427.652 314.762C427.349 313.02 427.02 311.303 426.642 309.586C426.288 307.868 425.909 306.177 425.505 304.485C425.152 302.97 424.773 301.454 424.369 299.939C423.94 298.273 423.485 296.606 422.98 294.964C422.5 293.323 422.02 291.682 421.465 290.065C421.061 288.702 420.606 287.363 420.126 286.025C419.849 285.192 419.571 284.384 419.268 283.576C418.813 282.262 418.334 280.949 417.828 279.661C417.096 277.692 416.288 275.747 415.48 273.803C415 272.565 414.47 271.328 413.914 270.116C411.97 265.697 409.899 261.379 407.652 257.136C407.147 256.151 406.616 255.166 406.061 254.182C405.632 253.348 405.177 252.54 404.697 251.732C403.864 250.242 403.005 248.752 402.121 247.288C401.187 245.697 400.202 244.106 399.192 242.54C398.384 241.227 397.525 239.914 396.667 238.626C394.066 234.687 391.339 230.874 388.485 227.136C387.576 225.949 386.642 224.788 385.732 223.626C384.015 221.48 382.273 219.384 380.48 217.313C379.697 216.404 378.889 215.52 378.132 214.636C377.172 213.576 376.212 212.515 375.228 211.48C374.192 210.318 373.106 209.182 371.995 208.071C370.833 206.858 369.621 205.646 368.409 204.459C367.222 203.273 365.96 202.086 364.722 200.949C363.46 199.762 362.222 198.601 360.935 197.515C359.798 196.454 358.611 195.444 357.45 194.459C357.222 194.232 357.02 194.055 356.793 193.904C355.632 192.868 354.419 191.858 353.207 190.899C352.071 189.964 350.909 189.055 349.748 188.121C348.03 186.808 346.313 185.495 344.571 184.232C343.384 183.348 342.172 182.49 340.96 181.656C339.647 180.722 338.359 179.838 337.02 178.954C336.844 178.828 336.667 178.702 336.49 178.601C335.126 177.692 333.788 176.808 332.399 175.975C330.935 175.04 329.495 174.131 328.005 173.273C326.541 172.363 325.076 171.505 323.561 170.672C322.399 169.99 321.187 169.308 319.975 168.677C317.854 167.49 315.707 166.379 313.535 165.318C312.323 164.687 311.137 164.106 309.95 163.55C309.849 163.475 309.773 163.424 309.672 163.424C308.207 162.692 306.743 162.01 305.253 161.353C305.152 161.278 305.025 161.252 304.924 161.202C303.687 160.646 302.475 160.116 301.212 159.586C300.455 159.257 299.697 158.929 298.94 158.626C297.45 157.995 295.985 157.414 294.495 156.858C293.536 156.454 292.551 156.101 291.591 155.747C290.884 155.47 290.152 155.192 289.445 154.964C288.207 154.485 286.97 154.055 285.707 153.651C285.632 153.601 285.53 153.576 285.429 153.55C283.914 153.02 282.424 152.54 280.884 152.06C280.606 151.959 280.354 151.884 280.076 151.808C278.788 151.404 277.525 151 276.212 150.646C275.707 150.469 275.202 150.318 274.672 150.192C273.334 149.813 272.02 149.434 270.657 149.106C270.429 149.03 270.202 148.954 269.975 148.904C268.409 148.5 266.869 148.121 265.303 147.742C265.227 147.717 265.126 147.692 265.051 147.692C263.359 147.288 261.667 146.909 259.95 146.555C258.283 146.177 256.591 145.848 254.899 145.545C254.748 145.495 254.596 145.469 254.445 145.444C252.753 145.141 251.086 144.838 249.394 144.586C247.601 144.283 245.833 144.005 244.041 143.778C242.248 143.5 240.455 143.273 238.636 143.096C236.869 142.868 235.101 142.692 233.283 142.54C233.232 142.54 233.182 142.515 233.106 142.54C229.621 142.212 226.061 141.985 222.525 141.858C222.222 141.808 221.894 141.808 221.591 141.808C219.95 141.732 218.333 141.682 216.692 141.682H215.783C214.849 141.631 213.889 141.631 212.955 141.631H136.238C136.137 141.581 136.061 141.454 136.061 141.328V141.631H66.692C30.6819 140.697 1.41426 109.889 0.833454 72.1867V69.4089C1.41426 32.1867 29.6718 1.98468 65.0506 0.343262L68.2325 0.368539L219.015 1.37862V1.45438C416.97 4.53519 576.515 160.318 576.515 351.985Z" fill="url(#paint0_linear)"/>
<path d="M0.757813 432.641C0.757813 432.237 0.75776 431.833 0.782959 431.429V434.207C0.75776 433.803 0.757813 433.399 0.757813 432.995V432.641Z" fill="#36B5CB"/>
<path d="M458.561 227.591L455.404 227.566C456.414 227.515 457.399 227.49 458.409 227.49L458.561 227.591Z" fill="#36B5CB"/>
<path d="M134.243 225.52V477.439C134.243 511.985 104.495 539.939 67.8285 539.939H67.5002C30.8083 539.939 0.757812 511.682 0.757812 477.111V414.308H1.11131C0.909287 414.308 0.757812 414.156 0.757812 413.98V288.98C0.757812 288.803 0.909287 288.651 1.11131 288.651H0.757812V225.848C0.757812 191.303 30.8083 163.02 67.5002 163.02H67.8285C104.495 163.02 134.243 191.025 134.243 225.52Z" fill="url(#paint1_linear)"/>
<defs>
<linearGradient id="paint0_linear" x1="288.641" y1="568.388" x2="288.641" y2="191.167" gradientUnits="userSpaceOnUse">
<stop stop-color="#4ABE9B"/>
<stop offset="0.1716" stop-color="#48BEA1"/>
<stop offset="0.4685" stop-color="#42BCB1"/>
<stop offset="0.8526" stop-color="#3BBAC8"/>
<stop offset="1" stop-color="#39BAD1"/>
</linearGradient>
<linearGradient id="paint1_linear" x1="67.5045" y1="316.057" x2="67.5045" y2="375.63" gradientUnits="userSpaceOnUse">
<stop stop-color="#39BAD1"/>
<stop offset="0.2427" stop-color="#39BAD0"/>
<stop offset="0.4273" stop-color="#3ABACC"/>
<stop offset="0.5928" stop-color="#3BBBC4"/>
<stop offset="0.7471" stop-color="#3EBCB8"/>
<stop offset="0.8921" stop-color="#44BDA8"/>
<stop offset="1" stop-color="#4ABE98"/>
</linearGradient>
</defs>
</svg>
